<svg width="144" height="31" viewBox="0 0 144 31" fill="none" xmlns="http://www.w3.org/2000/svg">
<path fill-rule="evenodd" clip-rule="evenodd" d="M28.7354 22.6817C26.9779 22.6817 25.5533 21.2619 25.5533 19.5107V12.187V11.6786C25.5533 9.92723 24.1284 8.50771 22.3711 8.50771C20.6135 8.50771 19.5008 9.92744 19.5008 11.6786V12.3297V19.5105C19.5008 21.2617 17.7638 22.6815 16.0065 22.6815C14.2489 22.6815 12.8243 21.2617 12.8243 19.5105V17.7226V12.2399C12.7929 12.2225 12.7608 12.2067 12.7294 12.1895V11.6786C12.7294 9.92723 11.5895 8.50771 9.83216 8.50771C8.07459 8.50771 6.64998 9.92744 6.64998 11.6786V12.3274C6.64998 12.3274 6.74489 19.7426 7.12499 21.8276C7.50487 23.9128 8.73987 25.1973 10.3547 26.9033C11.9696 28.6093 9.49984 32.5374 6.27009 30.3575C3.04034 28.1776 1.40105 25.4097 0.855534 21.8276C0.299617 18.1806 0 11.7477 0 11.7477C0 11.7477 0.126769 9.44266 0.424688 8.92709C1.62847 5.03589 5.257 2.20874 9.54698 2.20874C12.0151 2.20874 14.2644 3.14475 15.9589 4.68064C17.6534 3.14475 19.9028 2.20874 22.3711 2.20874C26.6608 2.20874 30.2894 5.03589 31.4932 8.92709C31.7911 9.44266 31.9178 11.7477 31.9178 11.7477V17.7228V19.5107C31.9178 21.2619 30.493 22.6817 28.7354 22.6817Z" fill="#4D525D"/>
<path fill-rule="evenodd" clip-rule="evenodd" d="M9.81417 8.31827C11.5717 8.31827 12.9964 9.738 12.9964 11.4892V18.8129V19.3213C12.9964 21.0727 14.4212 22.4924 16.1785 22.4924C17.9361 22.4924 19.3609 21.0727 19.3609 19.3213V18.6702V11.4892C19.3609 9.738 20.7856 8.31827 22.5431 8.31827C24.3007 8.31827 25.7255 9.738 25.7255 11.4892V13.2771V18.7599C25.757 18.7773 25.789 18.793 25.8204 18.8102V19.3213C25.8204 21.0727 26.9603 22.4924 28.7177 22.4924C30.4752 22.4924 31.8999 21.0727 31.8999 19.3213V18.6726C31.8999 18.6726 31.8049 11.2573 31.4248 9.17231C31.0447 7.08731 29.81 5.80263 28.1951 4.09665C26.5802 2.39068 29.05 -1.53747 32.2797 0.642456C35.5095 2.82238 37.1488 5.59028 37.6943 9.17231C38.2498 12.8193 38.5492 19.2523 38.5492 19.2523C38.5492 19.2523 38.4224 21.5573 38.1245 22.0728C36.9207 25.964 33.2922 28.7912 29.0022 28.7912C26.5341 28.7912 24.2848 27.8552 22.5903 26.3193C20.8958 27.8552 18.6464 28.7912 16.1781 28.7912C11.8883 28.7912 8.25981 25.964 7.05604 22.0728C6.75812 21.5573 6.63135 19.2523 6.63135 19.2523V13.2771V11.4892C6.63198 9.738 8.0566 8.31827 9.81417 8.31827Z" fill="#FCD600"/>
<path d="M63.3649 6.61225C62.9808 6.35553 62.4627 6.22706 61.8101 6.22706H60.7505C60.1131 6.22706 59.6506 6.2846 59.3626 6.39948C59.0747 6.51436 58.8617 6.7214 58.7235 7.02016C58.5853 7.31893 58.4279 7.80584 58.2512 8.48003L55.798 17.7104L53.3448 8.48003C53.1681 7.80584 53.0108 7.31914 52.8726 7.02016C52.7343 6.7214 52.5213 6.51436 52.2334 6.39948C51.9455 6.2846 51.4828 6.22706 50.8455 6.22706H49.7859C49.1332 6.22706 48.6149 6.35553 48.2312 6.61225C47.8472 6.86897 47.6553 7.36522 47.6553 8.10078V21.4347C47.6553 22.0862 47.8009 22.571 48.0929 22.8888C48.3847 23.2067 48.761 23.366 49.2215 23.366C49.6976 23.366 50.0796 23.205 50.3675 22.8833C50.6555 22.5614 50.7995 22.0787 50.7995 21.4349V9.80208L53.506 20.5382C53.5981 20.8907 53.6882 21.2298 53.7767 21.5555C53.8648 21.8813 53.9859 22.1781 54.1394 22.4463C54.2929 22.7147 54.508 22.9349 54.7843 23.1073C55.0608 23.2798 55.3986 23.366 55.7978 23.366C56.3276 23.366 56.7423 23.2318 57.0417 22.9636C57.3411 22.6954 57.5465 22.3985 57.658 22.0728C57.7692 21.7471 57.9132 21.2357 58.0899 20.5382L60.7964 9.80208V21.4349C60.7964 22.0785 60.9423 22.5614 61.234 22.8833C61.5258 23.2052 61.898 23.366 62.3512 23.366C62.8349 23.366 63.2207 23.205 63.5087 22.8833C63.7966 22.5614 63.9406 22.0787 63.9406 21.4349V8.10078C63.9406 7.36501 63.7486 6.86897 63.3649 6.61225ZM78.3256 5.93976C78.0491 5.93976 77.8149 5.98966 77.623 6.08925C77.431 6.18884 77.2562 6.33259 77.0989 6.52031C76.9413 6.70823 76.7976 6.90932 76.667 7.12379C76.5364 7.33847 76.375 7.60284 76.1833 7.91689L72.993 13.032L69.8376 7.91689C69.3539 7.12761 68.991 6.60078 68.7491 6.33642C68.5072 6.07205 68.152 5.93976 67.6838 5.93976C67.2385 5.93976 66.8641 6.0816 66.5609 6.36508C66.2575 6.64877 66.1061 6.98576 66.1061 7.37669C66.1061 7.6143 66.181 7.89396 66.3307 8.21587C66.4804 8.53779 66.7357 8.98604 67.0966 9.56086L71.2197 15.9405V21.2856C71.2197 21.9908 71.3771 22.5138 71.692 22.8547C72.0067 23.1955 72.4176 23.3662 72.9242 23.3662C73.4232 23.3662 73.8341 23.1938 74.1567 22.8489C74.4792 22.5041 74.6404 21.983 74.6404 21.2856V15.9403L78.8673 9.4687C79.2204 8.93996 79.4699 8.52611 79.616 8.22734C79.7617 7.92857 79.8349 7.62959 79.8349 7.33082C79.8349 6.96304 79.691 6.63943 79.403 6.35956C79.1147 6.07969 78.7556 5.93976 78.3256 5.93976ZM101.888 5.93976C101.442 5.93976 101.103 6.05464 100.869 6.2846C100.634 6.51457 100.469 6.77512 100.373 7.06624C100.277 7.35758 100.176 7.75976 100.068 8.27321L97.8568 18.1128L95.3575 8.90557C95.1502 8.14686 94.985 7.60283 94.8623 7.27328C94.7394 6.94393 94.5185 6.63922 94.2 6.35956C93.8813 6.0799 93.4341 5.93997 92.8582 5.93997C92.29 5.93997 91.8407 6.07417 91.5107 6.34236C91.1805 6.61076 90.9424 6.92864 90.7966 7.29642C90.6507 7.6642 90.4855 8.2008 90.3014 8.90578L87.8254 18.1128L85.6141 8.27321C85.4529 7.5145 85.2646 6.93607 85.0497 6.53751C84.8346 6.13915 84.4163 5.93976 83.7943 5.93976C83.3412 5.93976 82.9611 6.08925 82.654 6.38802C82.3468 6.68678 82.1932 7.05477 82.1932 7.49157C82.1932 7.83641 82.2775 8.33839 82.4466 8.9973L85.2567 20.3426C85.3412 20.68 85.437 21.0457 85.5447 21.4404C85.6521 21.8352 85.7903 22.176 85.9594 22.4635C86.1282 22.7508 86.349 22.9734 86.6217 23.1303C86.8941 23.2872 87.2415 23.366 87.6641 23.366C88.186 23.366 88.6045 23.2339 88.9194 22.9695C89.2341 22.7052 89.455 22.4062 89.5817 22.073C89.7085 21.7396 89.8792 21.1899 90.0943 20.4235L92.8584 10.3196L95.5879 20.4235C95.8104 21.2128 95.9833 21.7704 96.1062 22.0959C96.229 22.4217 96.4479 22.7149 96.7628 22.9753C97.0775 23.2358 97.496 23.3662 98.0182 23.3662C98.5709 23.3662 98.999 23.232 99.3024 22.9638C99.6057 22.6956 99.8208 22.3832 99.9473 22.0269C100.074 21.6706 100.233 21.1094 100.425 20.343L103.235 8.99772C103.404 8.30803 103.489 7.80626 103.489 7.49199C103.489 7.04756 103.333 6.67786 103.022 6.38271C102.711 6.08734 102.333 5.93976 101.888 5.93976ZM107.589 5.93976C107.09 5.93976 106.683 6.11218 106.368 6.45703C106.053 6.80187 105.896 7.31914 105.896 8.00884V21.2852C105.896 21.9749 106.055 22.4941 106.374 22.8428C106.692 23.1914 107.098 23.3658 107.589 23.3658C108.103 23.3658 108.52 23.1933 108.839 22.8485C109.157 22.5036 109.317 21.9826 109.317 21.2852V8.00884C109.317 7.31171 109.157 6.79232 108.839 6.45129C108.52 6.11048 108.103 5.93976 107.589 5.93976ZM124.249 14.4114C123.707 14.0284 123.051 13.7026 122.279 13.4344C121.507 13.1662 120.646 12.9212 119.693 12.6989C118.933 12.5073 118.388 12.3617 118.058 12.2621C117.728 12.1625 117.402 12.0247 117.079 11.8482C116.756 11.672 116.503 11.4613 116.319 11.2161C116.135 10.971 116.042 10.6797 116.042 10.3425C116.042 9.79847 116.313 9.33301 116.854 8.94591C117.396 8.55902 118.108 8.36536 118.991 8.36536C119.943 8.36536 120.634 8.54352 121.064 8.89983C121.494 9.25614 121.862 9.75239 122.17 10.3884C122.407 10.8328 122.628 11.1528 122.832 11.3482C123.035 11.5435 123.333 11.6412 123.724 11.6412C124.154 11.6412 124.513 11.4785 124.801 11.1526C125.089 10.8271 125.233 10.4612 125.233 10.0548C125.233 9.61034 125.118 9.15443 124.888 8.68685C124.657 8.21948 124.292 7.77292 123.793 7.3476C123.294 6.92227 122.666 6.58146 121.91 6.32452C121.154 6.0678 120.258 5.93954 119.221 5.93954C117.923 5.93954 116.795 6.1332 115.835 6.52009C114.875 6.9072 114.142 7.46078 113.635 8.18105C113.128 8.90153 112.875 9.72521 112.875 10.6525C112.875 11.6259 113.115 12.44 113.595 13.0951C114.074 13.7504 114.723 14.2675 115.541 14.6469C116.359 15.0262 117.374 15.3579 118.587 15.6411C119.493 15.8479 120.217 16.0435 120.758 16.2274C121.3 16.4113 121.741 16.6776 122.083 17.0262C122.424 17.3751 122.595 17.8291 122.595 18.3884C122.595 19.0936 122.279 19.6816 121.645 20.1528C121.012 20.624 120.188 20.8597 119.175 20.8597C118.438 20.8597 117.842 20.7429 117.389 20.5091C116.936 20.2755 116.585 19.9785 116.336 19.6183C116.086 19.2582 115.854 18.8099 115.639 18.2733C115.462 17.8213 115.249 17.4802 115 17.2503C114.75 17.0203 114.445 16.9054 114.084 16.9054C113.639 16.9054 113.272 17.053 112.984 17.3479C112.696 17.6431 112.552 17.9973 112.552 18.4111C112.552 19.1238 112.792 19.8576 113.272 20.6123C113.752 21.3672 114.376 21.9707 115.144 22.4227C116.226 23.0513 117.601 23.3653 119.267 23.3653C120.656 23.3653 121.858 23.1354 122.872 22.6756C123.885 22.2159 124.655 21.58 125.181 20.7675C125.707 19.9553 125.97 19.0395 125.97 18.0202C125.97 17.1696 125.818 16.4512 125.515 15.8649C125.212 15.2793 124.79 14.7947 124.249 14.4114ZM142.642 6.45129C142.323 6.11048 141.906 5.93976 141.392 5.93976C140.885 5.93976 140.476 6.11218 140.165 6.45703C139.854 6.80187 139.699 7.31914 139.699 8.00884V12.8367H132.316V8.00884C132.316 7.31171 132.157 6.79232 131.838 6.45129C131.52 6.11048 131.103 5.93976 130.589 5.93976C130.067 5.93976 129.654 6.11218 129.351 6.45703C129.047 6.80187 128.896 7.31914 128.896 8.00884V21.2852C128.896 21.9749 129.049 22.4941 129.357 22.8428C129.664 23.1914 130.074 23.3658 130.589 23.3658C131.096 23.3658 131.51 23.1933 131.833 22.8485C132.155 22.5036 132.316 21.9826 132.316 21.2852V15.6184H139.699V21.2854C139.699 21.9751 139.852 22.4943 140.16 22.843C140.467 23.1916 140.878 23.366 141.392 23.366C141.899 23.366 142.313 23.1936 142.636 22.8487C142.958 22.5039 143.12 21.9828 143.12 21.2852V8.00884C143.12 7.3115 142.96 6.79232 142.642 6.45129Z" fill="#4D525D"/>
</svg>
